name C:/MyDriveSym/Projects/mobilecap/Data\Session20210819_0002\mocap\ForceDataProcessed\walkingTS3_forces.mot
datacolumns 19
datarows 17
range 0.70450000 0.71250000
endheader 
time	R_ground_force_vx	R_ground_force_vy	R_ground_force_vz	R_ground_force_px	R_ground_force_py	R_ground_force_pz	R_ground_torque_x	R_ground_torque_y	R_ground_torque_z	L_ground_force_vx	L_ground_force_vy	L_ground_force_vz	L_ground_force_px	L_ground_force_py	L_ground_force_pz	L_ground_torque_x	L_ground_torque_y	L_ground_torque_z	
          0.70450000	         33.27502300	        118.49707400	         -4.13142900	          0.25818400	          0.00600000	         -0.16361400	          0.00000000	         -0.31642100	          0.00000000	       -100.12871000	        623.36753300	         34.27508500	          0.79565500	          0.00600000	         -0.35046000	          0.00000000	         -0.45485000	          0.00000000	
          0.70500000	         32.87811500	        116.85814600	         -4.05956700	          0.25842600	          0.00600000	         -0.16360800	          0.00000000	         -0.30860600	          0.00000000	       -100.22832000	        624.43452200	         34.43159300	          0.79586600	          0.00600000	         -0.35050600	          0.00000000	         -0.45972300	          0.00000000	
          0.70550000	         32.48291600	        115.23030800	         -3.98834200	          0.25867100	          0.00600000	         -0.16360200	          0.00000000	         -0.30085900	          0.00000000	       -100.32472500	        625.49131700	         34.58666400	          0.79607600	          0.00600000	         -0.35055100	          0.00000000	         -0.46454000	          0.00000000	
          0.70600000	         32.08945900	        113.61359400	         -3.91775000	          0.25891900	          0.00600000	         -0.16359600	          0.00000000	         -0.29317800	          0.00000000	       -100.41792500	        626.53790600	         34.74028800	          0.79628600	          0.00600000	         -0.35059600	          0.00000000	         -0.46929800	          0.00000000	
          0.70650000	         31.69777600	        112.00804100	         -3.84779000	          0.25917000	          0.00600000	         -0.16358900	          0.00000000	         -0.28556500	          0.00000000	       -100.50792200	        627.57428200	         34.89245900	          0.79649600	          0.00600000	         -0.35064200	          0.00000000	         -0.47399500	          0.00000000	
          0.70700000	         31.30789700	        110.41368100	         -3.77845800	          0.25942500	          0.00600000	         -0.16358200	          0.00000000	         -0.27802000	          0.00000000	       -100.59471900	        628.60043300	         35.04316900	          0.79670500	          0.00600000	         -0.35068700	          0.00000000	         -0.47863100	          0.00000000	
          0.70750000	         30.91985300	        108.83054700	         -3.70975300	          0.25968300	          0.00600000	         -0.16357500	          0.00000000	         -0.27054100	          0.00000000	       -100.67831700	        629.61634900	         35.19241300	          0.79691500	          0.00600000	         -0.35073200	          0.00000000	         -0.48320400	          0.00000000	
          0.70800000	         30.53367500	        107.25866900	         -3.64167200	          0.25994500	          0.00600000	         -0.16356800	          0.00000000	         -0.26313100	          0.00000000	       -100.75872100	        630.62202200	         35.34018400	          0.79712300	          0.00600000	         -0.35077700	          0.00000000	         -0.48771200	          0.00000000	
          0.70850000	         30.14939300	        105.69807500	         -3.57421300	          0.26021000	          0.00600000	         -0.16356100	          0.00000000	         -0.25578700	          0.00000000	       -100.83593200	        631.61744000	         35.48647500	          0.79733200	          0.00600000	         -0.35082300	          0.00000000	         -0.49215400	          0.00000000	
          0.70900000	         29.76703400	        104.14879200	         -3.50737100	          0.26047800	          0.00600000	         -0.16355300	          0.00000000	         -0.24851100	          0.00000000	       -100.90995400	        632.60259400	         35.63128200	          0.79754000	          0.00600000	         -0.35086800	          0.00000000	         -0.49652800	          0.00000000	
          0.70950000	         29.38662700	        102.61084600	         -3.44114600	          0.26075100	          0.00600000	         -0.16354500	          0.00000000	         -0.24130300	          0.00000000	       -100.98079000	        633.57747300	         35.77459800	          0.79774800	          0.00600000	         -0.35091300	          0.00000000	         -0.50083400	          0.00000000	
          0.71000000	         29.00820100	        101.08426100	         -3.37553500	          0.26102700	          0.00600000	         -0.16353700	          0.00000000	         -0.23416200	          0.00000000	       -101.04844500	        634.54206700	         35.91641900	          0.79795600	          0.00600000	         -0.35095800	          0.00000000	         -0.50506800	          0.00000000	
          0.71050000	         28.63178100	         99.56905800	         -3.31053400	          0.26130800	          0.00600000	         -0.16352800	          0.00000000	         -0.22708900	          0.00000000	       -101.11292200	        635.49636500	         36.05673900	          0.79816300	          0.00600000	         -0.35100200	          0.00000000	         -0.50923100	          0.00000000	
          0.71100000	         28.25739400	         98.06525800	         -3.24614100	          0.26159200	          0.00600000	         -0.16352000	          0.00000000	         -0.22008300	          0.00000000	       -101.17422700	        636.44035800	         36.19555400	          0.79837000	          0.00600000	         -0.35104700	          0.00000000	         -0.51332100	          0.00000000	
          0.71150000	         27.88506600	         96.57288100	         -3.18235400	          0.26188100	          0.00600000	         -0.16351100	          0.00000000	         -0.21314500	          0.00000000	       -101.23236400	        637.37403400	         36.33286100	          0.79857700	          0.00600000	         -0.35109200	          0.00000000	         -0.51733600	          0.00000000	
          0.71200000	         27.51482100	         95.09194400	         -3.11916900	          0.26217400	          0.00600000	         -0.16350200	          0.00000000	         -0.20627400	          0.00000000	       -101.28733700	        638.29738400	         36.46865400	          0.79878400	          0.00600000	         -0.35113700	          0.00000000	         -0.52127500	          0.00000000	
          0.71250000	         27.14668400	         93.62246300	         -3.05658400	          0.26247200	          0.00600000	         -0.16349200	          0.00000000	         -0.19947100	          0.00000000	       -101.33915300	        639.21039500	         36.60293100	          0.79899000	          0.00600000	         -0.35118200	          0.00000000	         -0.52513600	          0.00000000	
